<?xml version="1.0" encoding="UTF-8" standalone="no"?>
<!DOCTYPE svg PUBLIC "-//W3C//DTD SVG 1.1//EN"
 "http://www.w3.org/Graphics/SVG/1.1/DTD/svg11.dtd">
<!-- Generated by graphviz version 2.43.0 (0)
 -->
<!-- Title: initial Pages: 1 -->
<svg width="302pt" height="130pt"
 viewBox="0.00 0.00 302.00 130.00" xmlns="http://www.w3.org/2000/svg" xmlns:xlink="http://www.w3.org/1999/xlink">
<g id="graph0" class="graph" transform="scale(1 1) rotate(0) translate(4 126)">
<title>initial</title>
<g id="clust1" class="cluster">
<title>cluster_0</title>
<polygon fill="#8bc4e9" stroke="black" points="8,-8 8,-114 286,-114 286,-8 8,-8"/>
<text text-anchor="middle" x="147" y="-102" font-family="Lato" font-size="10.00">pytest</text>
</g>
<g id="clust2" class="cluster">
<title>cluster_1</title>
<polygon fill="#8bc4e9" stroke="black" points="194,-16 194,-87 278,-87 278,-16 194,-16"/>
<text text-anchor="middle" x="236" y="-75" font-family="Lato" font-size="10.00">pytest&#45;flake8</text>
</g>
<!-- pytest&#45;black -->
<g id="node1" class="node">
<title>pytest&#45;black</title>
<polygon fill="#8bc4e9" stroke="black" points="183.5,-60 112.5,-60 112.5,-24 183.5,-24 183.5,-60"/>
<text text-anchor="middle" x="148" y="-39.5" font-family="Lato" font-size="10.00">pytest&#45;black</text>
</g>
<!-- pytest&#45;pyright -->
<g id="node2" class="node">
<title>pytest&#45;pyright</title>
<polygon fill="#8bc4e9" stroke="black" points="94.5,-60 15.5,-60 15.5,-24 94.5,-24 94.5,-60"/>
<text text-anchor="middle" x="55" y="-39.5" font-family="Lato" font-size="10.00">pytest&#45;pyright</text>
</g>
<!-- flake8&#45;isort -->
<g id="node3" class="node">
<title>flake8&#45;isort</title>
<polygon fill="#8bc4e9" stroke="black" points="270,-60 202,-60 202,-24 270,-24 270,-60"/>
<text text-anchor="middle" x="236" y="-39.5" font-family="Lato" font-size="10.00">flake8&#45;isort</text>
</g>
</g>
</svg>
