<?xml version="1.0" encoding="UTF-8" standalone="no"?>
<!DOCTYPE svg PUBLIC "-//W3C//DTD SVG 1.1//EN"
 "http://www.w3.org/Graphics/SVG/1.1/DTD/svg11.dtd">
<!-- Generated by graphviz version 2.43.0 (0)
 -->
<!-- Title: rearranged Pages: 1 -->
<svg width="426pt" height="165pt"
 viewBox="0.00 0.00 426.00 165.00" xmlns="http://www.w3.org/2000/svg" xmlns:xlink="http://www.w3.org/1999/xlink">
<g id="graph0" class="graph" transform="scale(1 1) rotate(0) translate(4 161)">
<title>rearranged</title>
<g id="clust1" class="cluster">
<title>cluster_0</title>
<polygon fill="#8bc4e9" stroke="black" points="8,-8 8,-149 410,-149 410,-8 8,-8"/>
<text text-anchor="middle" x="209" y="-137" font-family="Lato" font-size="10.00">tox &#45;p</text>
</g>
<g id="clust2" class="cluster">
<title>cluster_1</title>
<polygon fill="#8bc4e9" stroke="black" points="238,-16 238,-122 402,-122 402,-16 238,-16"/>
<text text-anchor="middle" x="320" y="-110" font-family="Lato" font-size="10.00">pre&#45;commit</text>
</g>
<g id="clust3" class="cluster">
<title>cluster_2</title>
<polygon fill="#8bc4e9" stroke="black" points="310,-24 310,-95 394,-95 394,-24 310,-24"/>
<text text-anchor="middle" x="352" y="-83" font-family="Lato" font-size="10.00">flake8</text>
</g>
<!-- pytest -->
<g id="node1" class="node">
<title>pytest</title>
<polygon fill="#8bc4e9" stroke="black" points="228,-68 174,-68 174,-32 228,-32 228,-68"/>
<text text-anchor="middle" x="201" y="-47.5" font-family="Lato" font-size="10.00">pytest</text>
</g>
<!-- pyright -->
<g id="node2" class="node">
<title>pyright</title>
<polygon fill="#8bc4e9" stroke="black" points="156,-68 102,-68 102,-32 156,-32 156,-68"/>
<text text-anchor="middle" x="129" y="-47.5" font-family="Lato" font-size="10.00">pyright</text>
</g>
<!-- sphinx&#45;build -->
<g id="node3" class="node">
<title>sphinx&#45;build</title>
<polygon fill="#8bc4e9" stroke="black" points="84,-68 16,-68 16,-32 84,-32 84,-68"/>
<text text-anchor="middle" x="50" y="-47.5" font-family="Lato" font-size="10.00">sphinx&#45;build</text>
</g>
<!-- black -->
<g id="node4" class="node">
<title>black</title>
<polygon fill="#8bc4e9" stroke="black" points="300,-68 246,-68 246,-32 300,-32 300,-68"/>
<text text-anchor="middle" x="273" y="-47.5" font-family="Lato" font-size="10.00">black</text>
</g>
<!-- flake8&#45;isort -->
<g id="node5" class="node">
<title>flake8&#45;isort</title>
<polygon fill="#8bc4e9" stroke="black" points="386,-68 318,-68 318,-32 386,-32 386,-68"/>
<text text-anchor="middle" x="352" y="-47.5" font-family="Lato" font-size="10.00">flake8&#45;isort</text>
</g>
</g>
</svg>
